<svg height="512pt" viewBox="0 0 512 512" width="512pt" xmlns="http://www.w3.org/2000/svg"><path d="m432 273h-352v-119.878906h352zm-312-40h272v-39.878906h-272zm312-156.878906h-352v40h352zm0 273.757812h-192v40h192zm-232 80h-120v-119.878906h120zm-80-40h40v-39.878906h-40zm332 122.121094h-392c-33.085938 0-60-26.914062-60-60v-392c0-33.085938 26.914062-60 60-60h392c33.085938 0 60 26.914062 60 60v392c0 33.085938-26.914062 60-60 60zm-392-472c-11.027344 0-20 8.972656-20 20v392c0 11.027344 8.972656 20 20 20h392c11.027344 0 20-8.972656 20-20v-392c0-11.027344-8.972656-20-20-20zm0 0"/></svg>